Coordinates
version=1
nRows=8
nColumns=40
inDegrees=yes

Units are S.I. units (second, meters, Newtons, ...)
Angles are in degrees.

endheader
time	pelvis_tilt	pelvis_list	pelvis_rotation	pelvis_tx	pelvis_ty	pelvis_tz	hip_flexion_r	hip_adduction_r	hip_rotation_r	knee_angle_r	knee_angle_r_beta	ankle_angle_r	subtalar_angle_r	mtp_angle_r	hip_flexion_l	hip_adduction_l	hip_rotation_l	knee_angle_l	knee_angle_l_beta	ankle_angle_l	subtalar_angle_l	mtp_angle_l	lumbar_extension	lumbar_bending	lumbar_rotation	arm_flex_r	arm_add_r	arm_rot_r	elbow_flex_r	pro_sup_r	wrist_flex_r	wrist_dev_r	arm_flex_l	arm_add_l	arm_rot_l	elbow_flex_l	pro_sup_l	wrist_flex_l	wrist_dev_l
     34.77000000	     -2.71529787	     -5.72908862	      3.65073288	      0.82243590	      0.92950682	      0.49913164	     12.62651474	      4.23834860	    -14.21793839	     17.01381692	     17.01381692	      9.70286316	     -2.08049440	     -6.70819418	     30.98821387	    -10.11659862	      3.63238493	     60.92047359	     60.92047359	      7.53398801	    -16.72652298	      8.19965569	    -10.00782506	      6.66821485	      1.31105813	     15.04915966	    -18.97069278	     -6.35181760	     62.48223334	     44.91810819	      0.00000000	      0.00000000	      0.53108636	    -10.66269383	     -6.70454635	     47.50075568	     45.08395885	      0.00000000	      0.00000000
     34.78285714	     -2.80508088	     -5.69006752	      3.94816535	      0.82112614	      0.92963477	      0.49961935	     12.16070690	      4.27959577	    -14.38750501	     16.68672038	     16.68672038	      9.91778592	     -2.08468912	     -6.74478033	     31.86984191	    -10.13466147	      3.35279059	     58.01403811	     58.01403811	      7.84178603	    -17.25965625	      8.26891550	    -10.01008646	      6.56745891	      1.12052264	     16.92147912	    -18.65371330	     -6.23284199	     64.05519385	     44.87840824	      0.00000000	      0.00000000	     -0.42072601	    -10.48992645	     -6.54420284	     46.10180532	     45.07546555	      0.00000000	      0.00000000
     34.79571429	     -2.93037623	     -5.65909297	      4.21809137	      0.81981012	      0.92966201	      0.50011977	     11.76018224	      4.31983956	    -14.52370080	     16.38981657	     16.38981657	     10.09952554	     -2.02227718	     -6.83886591	     32.54247138	    -10.13667937	      3.03792903	     54.72117684	     54.72117684	      7.91627301	    -17.53601951	      7.96249215	    -10.00004343	      6.46782474	      1.20254337	     18.47388839	    -18.71512168	     -5.68927425	     66.08146429	     44.81986674	      0.00000000	      0.00000000	     -0.93141937	    -10.18995397	     -6.38551141	     43.96205939	     45.09569328	      0.00000000	      0.00000000
     34.80857143	     -3.01551241	     -5.60323449	      4.48722820	      0.81856087	      0.92972904	      0.50049291	     11.32555537	      4.33643922	    -14.63299587	     16.12059730	     16.12059730	     10.30772610	     -2.03295828	     -6.86817554	     32.95344754	    -10.02353224	      2.75526948	     51.15474554	     51.15474554	      8.08939016	    -17.66247145	      8.06298212	    -10.04322346	      6.35073947	      1.28705738	     20.08663474	    -18.65515042	     -5.46425316	     67.90939494	     44.77821506	      0.00000000	      0.00000000	     -1.54433428	     -9.94921273	     -6.14739038	     42.25829810	     45.09829145	      0.00000000	      0.00000000
     34.82142857	     -3.06119837	     -5.47647546	      4.73487440	      0.81739943	      0.92979555	      0.50068862	     10.87664159	      4.26726727	    -14.68583667	     15.91912430	     15.91912430	     10.55105432	     -2.08797217	     -6.88139750	     33.11173407	     -9.74158235	      2.53727630	     47.38942993	     47.38942993	      8.38094715	    -17.55595296	      8.43712588	    -10.15780249	      6.17741143	      1.33959989	     21.79941406	    -18.47714549	     -5.39681786	     69.39299711	     44.74263320	      0.00000000	      0.00000000	     -2.30786703	     -9.74988601	     -5.92213470	     41.09563963	     45.07689909	      0.00000000	      0.00000000
     34.83428571	     -3.16933290	     -5.42291109	      4.96403484	      0.81630217	      0.92965541	      0.50082065	     10.54317827	      4.25290292	    -14.79532411	     15.79518209	     15.79518209	     10.79771944	     -2.13173257	     -6.90862960	     33.24494803	     -9.49552075	      2.38464123	     43.56077331	     43.56077331	      8.65723029	    -17.07699723	      8.78937054	    -10.12467855	      6.04223664	      1.44904900	     23.46718566	    -18.36605705	     -5.28823605	     70.79462990	     44.70626859	      0.00000000	      0.00000000	     -3.02630980	     -9.53159992	     -5.69269790	     40.00228144	     45.05056631	      0.00000000	      0.00000000
     34.84714286	     -3.25873669	     -5.41281508	      5.21570228	      0.81526087	      0.92943588	      0.50070244	     10.23268386	      4.23694190	    -15.04815775	     15.76415791	     15.76415791	     11.14642300	     -1.93587153	     -6.78007794	     33.22801723	     -9.18574053	      2.42981166	     39.62116644	     39.62116644	      8.58818983	    -16.52836762	      8.15672184	    -10.13306919	      6.05750385	      1.74154831	     24.70717025	    -18.74028920	     -4.52883186	     73.18952235	     44.65174303	      0.00000000	      0.00000000	     -2.92190698	     -9.22670361	     -4.97455378	     37.11568650	     45.02964838	      0.00000000	      0.00000000
     34.86000000	     -3.35487234	     -5.33859277	      5.42352203	      0.81431267	      0.92915629	      0.50046695	      9.93368721	      4.17159825	    -15.11079215	     15.74870253	     15.74870253	     11.43201445	     -2.05965215	     -6.80577563	     33.16279671	     -8.80533094	      2.48150686	     35.83300922	     35.83300922	      8.97302390	    -15.38401618	      8.40022674	    -10.13633173	      5.94385151	      1.79878416	     26.38406309	    -18.47070718	     -4.56009996	     74.49804047	     44.62448199	      0.00000000	      0.00000000	     -3.71374875	     -9.03575129	     -4.75828319	     36.40762984	     45.00258935	      0.00000000	      0.00000000
